<svg xmlns="http://www.w3.org/2000/svg" xmlns:xlink="http://www.w3.org/1999/xlink" width="244" height="48" viewBox="0 0 244 48"><defs><style>.a,.c,.d{fill:#fff;}.a{stroke:#707070;}.b{clip-path:url(#a);}.c{font-size:30px;font-family:Helvetica-BoldOblique, Helvetica;font-weight:700;font-style:oblique;letter-spacing:0.033em;}</style><clipPath id="a"><rect class="a" width="244" height="48" transform="translate(30.451 18.62)"/></clipPath></defs><g class="b" transform="translate(-30.451 -18.62)"><g transform="translate(31.529 22.088)"><g transform="translate(0 0)"><g transform="translate(0 0)"><text class="c" transform="translate(71.266 31.643)"><tspan x="0" y="0">FASTFEET</tspan></text><g transform="translate(0 0)"><path class="d" d="M51.658,15.415H11.1a1.207,1.207,0,0,0,0,2.414H51.658a1.207,1.207,0,0,0,0-2.414Z" transform="translate(8.048 12.266)"/><path class="d" d="M51.955,11.623h-37.5a1.162,1.162,0,0,0,0,2.322h37.5a1.162,1.162,0,0,0,0-2.322Z" transform="translate(10.81 9.183)"/><path class="d" d="M49.262,7.869H8.707a1.207,1.207,0,0,0,0,2.413H49.262a1.207,1.207,0,0,0,0-2.413Z" transform="translate(6.1 6.132)"/><path class="d" d="M17.718,41.1A10.634,10.634,0,0,1,7.1,30.481a5.55,5.55,0,0,1,.078-.9A10.623,10.623,0,0,1,10.638,8.916c.338,0,.676.015,1.012.047A10.392,10.392,0,0,1,22.063.145,10.653,10.653,0,0,1,32.469,8.628a1.369,1.369,0,1,1-2.683.547,7.9,7.9,0,0,0-7.725-6.293,7.691,7.691,0,0,0-7.8,7.744A1.369,1.369,0,0,1,12.381,11.9l-.27-.108A7.887,7.887,0,0,0,9.106,27.275a1.367,1.367,0,0,1,.995,1.88l-.116.272c-.015.082-.032.162-.047.241a4.25,4.25,0,0,0-.107.811,7.888,7.888,0,0,0,15.183,3,1.368,1.368,0,1,1,2.53,1.04A10.582,10.582,0,0,1,17.718,41.1Z" transform="translate(-0.015 -0.145)"/></g></g></g></g></g></svg>